<svg width="15" height="15" viewBox="0 0 15 15" fill="none" xmlns="http://www.w3.org/2000/svg">
<path d="M14.3132 7.4975C14.3132 8.54901 14.2935 9.60355 14.3189 10.6551C14.3612 12.5164 13.2692 13.9546 11.878 14.5952C11.3193 14.8521 10.7324 14.988 10.1257 14.988C8.22667 14.991 6.3248 15.0182 4.42575 14.979C2.99511 14.9487 1.81843 14.3082 0.974719 13.0451C0.531701 12.3804 0.320068 11.625 0.320068 10.8061C0.320068 8.63966 0.320068 6.4762 0.320068 4.30972C0.320068 2.54208 1.12427 1.30625 2.55209 0.502509C3.17288 0.155026 3.84728 0.00696817 4.5499 0.00394657C6.39252 0.00394657 8.23796 -0.0081398 10.0806 0.00998975C11.5112 0.0220761 12.7048 0.608265 13.5852 1.84108C14.0762 2.53 14.3132 3.32166 14.3132 4.19187C14.3132 5.29173 14.3132 6.39462 14.3132 7.4975ZM1.3613 7.4975C1.3613 8.60642 1.3613 9.71232 1.3613 10.8212C1.3613 11.3168 1.46853 11.7821 1.70838 12.2021C2.33764 13.305 3.28857 13.8428 4.46807 13.864C6.36148 13.8942 8.25771 13.8761 10.1539 13.87C10.6195 13.87 11.071 13.7673 11.4915 13.5528C12.6371 12.9666 13.2776 12.0329 13.272 10.6309C13.2607 8.48556 13.2692 6.34023 13.2692 4.1949C13.2692 3.58756 13.1083 3.03158 12.7725 2.54208C12.1235 1.60237 11.2262 1.14007 10.1539 1.12798C8.26336 1.10381 6.37277 1.11891 4.48218 1.12194C4.07867 1.12194 3.68926 1.20956 3.31115 1.36064C2.27273 1.7746 1.30769 2.82309 1.35284 4.36713C1.3867 5.4126 1.3613 6.45505 1.3613 7.4975Z" fill="white"/>
<path d="M7.33217 10.7004C5.51213 10.7004 4.04481 9.14729 4.04199 7.21347C4.03916 5.30986 5.51777 3.75072 7.32653 3.75072C9.14093 3.7477 10.6139 5.30382 10.6167 7.22253C10.6167 9.13822 9.14657 10.6974 7.33217 10.7004ZM7.33217 9.5824C8.57093 9.5824 9.57548 8.52182 9.57266 7.21649C9.56984 5.92325 8.56529 4.86569 7.33217 4.86569C6.09341 4.86569 5.08322 5.92022 5.08322 7.22253C5.08604 8.52786 6.09341 9.58542 7.33217 9.5824Z" fill="white"/>
<path d="M10.9977 2.69316C11.3786 2.69316 11.689 3.04065 11.689 3.46669C11.6862 3.89274 11.3729 4.2372 10.992 4.23418C10.6167 4.23116 10.3091 3.88669 10.3091 3.46971C10.3063 3.04367 10.6167 2.69316 10.9977 2.69316Z" fill="white"/>
</svg>
