<svg width="21" height="13" viewBox="0 0 21 13" fill="none" xmlns="http://www.w3.org/2000/svg">
<path fill-rule="evenodd" clip-rule="evenodd" d="M0.253418 1.63166C0.335363 1.27954 0.457299 0.939503 0.785077 0.761024C1.00268 0.642978 1.25204 0.527349 1.49082 0.519292C2.32908 0.490284 3.16931 0.49955 4.00875 0.511234C4.56472 0.519292 4.9419 0.817428 5.17597 1.33232C5.2352 1.46282 5.29362 1.59388 5.35206 1.72497C5.56712 2.20738 5.78235 2.69018 6.03855 3.14733C6.26296 3.54298 6.5296 3.91351 6.796 4.28369C6.88985 4.41411 6.98367 4.54448 7.07559 4.67588C7.09919 4.70977 7.14351 4.72821 7.18785 4.74666V4.74666C7.22066 4.76031 7.26127 4.74666 7.27962 4.71624V4.71624C7.30439 4.67518 7.32913 4.63417 7.32966 4.5941C7.33633 4.1058 7.3375 3.6175 7.32966 3.1296V1.06359C7.31084 0.620416 7.63547 0.508414 7.80486 0.508414C8.8789 0.505191 9.9528 0.505191 11.0266 0.508414C11.8005 0.51204 12.3228 1.04506 12.3295 1.84479C12.3341 2.4034 12.3333 2.96201 12.3324 3.52061C12.3319 3.91161 12.3313 4.30261 12.3326 4.69361C12.3326 5.04735 12.549 5.2778 12.829 5.19198C12.9607 5.15169 13.0936 5.02196 13.1697 4.89667C13.8966 3.7009 14.6204 2.50432 15.3261 1.29364C15.6441 0.741283 16.0754 0.482629 16.7015 0.501967C17.2473 0.518583 17.7939 0.51444 18.3404 0.510298C18.5359 0.508815 18.7315 0.507333 18.927 0.506802C19.4551 0.506802 19.8644 0.723959 20.1075 1.20944C20.3506 1.69492 20.2796 2.16549 19.9711 2.60424C19.1485 3.77476 18.3264 4.94568 17.5049 6.11701C17.2767 6.44214 17.2767 6.56019 17.5049 6.88693C18.327 8.05772 19.149 9.22865 19.9711 10.3997C20.4627 11.1036 20.2702 12.0113 19.5445 12.3545C19.3484 12.4425 19.137 12.4891 18.923 12.4915C18.4045 12.502 17.8856 12.5004 17.3666 12.4988C17.1109 12.4981 16.8553 12.4973 16.5996 12.4979C16.1173 12.4979 15.737 12.3029 15.4414 11.9097C14.908 11.2037 14.3708 10.5008 13.8335 9.79769L13.8333 9.79752L13.8328 9.79687C13.6149 9.51162 13.3969 9.22636 13.1791 8.94085L13.1073 8.84577C12.9838 8.68462 12.825 8.61048 12.6267 8.66649C12.4483 8.71685 12.3361 8.88203 12.3318 9.1149C12.328 9.3204 12.3285 9.52499 12.329 9.72941V9.72947C12.3294 9.88572 12.3298 10.0419 12.3283 10.1983C12.3281 10.2137 12.328 10.2291 12.3278 10.2445C12.3278 10.2516 12.3277 10.2588 12.3277 10.266C12.3267 10.4045 12.3257 10.5425 12.2981 10.6769C12.1154 11.5588 11.539 12.0733 10.7439 12.3408C9.85818 12.6386 9.01286 12.5092 8.22439 11.9935C5.34653 10.1104 3.13245 7.59037 1.48023 4.53729C1.18879 3.99886 0.918232 3.44835 0.647708 2.89791C0.572492 2.74486 0.497279 2.59182 0.42162 2.43905C0.373083 2.34179 0.337898 2.23787 0.302674 2.13383C0.286681 2.08659 0.27068 2.03932 0.253418 1.99265V1.63166ZM8.17342 2.2227V3.00712C8.17228 3.17733 8.17272 3.34758 8.17316 3.5178C8.17424 3.93623 8.17532 4.35451 8.15303 4.77177C8.13107 5.19279 7.87857 5.47521 7.48649 5.59809C7.09441 5.72097 6.74899 5.60414 6.48473 5.28586C6.26987 5.0268 6.06991 4.75364 5.87466 4.48008C5.2736 3.63402 4.82584 2.69811 4.43573 1.734C4.32869 1.4689 4.155 1.35649 3.87976 1.35891C3.44466 1.36305 3.00943 1.36246 2.57423 1.36187C2.24782 1.36143 1.92143 1.36098 1.59511 1.36254C1.16657 1.36455 0.981509 1.66712 1.16853 2.06074C1.39045 2.52688 1.61668 2.99383 1.84957 3.45634C3.46259 6.65406 5.66646 9.30667 8.64077 11.2566C9.2089 11.6289 9.80799 11.7365 10.4479 11.5431C11.0332 11.3662 11.5535 10.936 11.5065 10.1294C11.4873 9.80959 11.4958 9.48774 11.5044 9.16669L11.5044 9.16593C11.5051 9.13938 11.5058 9.11283 11.5065 9.0863C11.5167 8.60283 11.7123 8.21888 12.1224 7.97191C12.7031 7.6226 13.352 7.77449 13.799 8.35828C14.0565 8.69477 14.3132 9.03209 14.57 9.36942C15.079 10.0382 15.5881 10.7071 16.1036 11.3699C16.1903 11.4811 16.3334 11.616 16.4533 11.6188C17.3183 11.6406 18.1844 11.639 19.0497 11.6261C19.3332 11.6221 19.4978 11.3038 19.379 11.0371C19.3369 10.9542 19.2873 10.8755 19.2308 10.8022C18.4318 9.66336 17.6325 8.5248 16.8329 7.38651C16.3871 6.75116 16.3887 6.24755 16.8384 5.60696C17.6453 4.45765 18.4528 3.30875 19.261 2.16025C19.3826 1.98822 19.4716 1.81659 19.3712 1.60749C19.2657 1.38792 19.0669 1.36092 18.8564 1.36133C18.6424 1.36133 18.4284 1.36187 18.2145 1.36242C17.6929 1.36375 17.1713 1.36508 16.6498 1.35851C16.3879 1.35528 16.2106 1.44996 16.075 1.68525C15.821 2.12524 15.5589 2.56028 15.2967 2.99539L15.2964 2.9959C15.1923 3.16861 15.0882 3.34132 14.9846 3.51436C14.6067 4.14609 14.2286 4.77795 13.8503 5.40994C13.5735 5.87085 13.174 6.11178 12.6439 6.06464C11.9793 6.00582 11.5108 5.46595 11.5069 4.76613C11.5034 4.19948 11.504 3.63298 11.5046 3.06645C11.5051 2.66987 11.5055 2.27328 11.5045 1.87662C11.5045 1.54383 11.3512 1.36697 11.034 1.36495C10.0806 1.35899 9.12706 1.35832 8.17342 1.36295V2.2227Z" fill="white"/>
</svg>
